<svg xmlns="http://www.w3.org/2000/svg" width="22" height="22" viewBox="0 0 22 22" fill="none">
  <rect x="0.636353" y="0.636353" width="20.7273" height="20.7273" rx="5" fill="#0D97C2"/>
  <path fill-rule="evenodd" clip-rule="evenodd" d="M17 17H14.3477V12.7814C14.3477 11.6774 13.9332 10.9235 13.0206 10.9235C12.323 10.9235 11.9349 11.4323 11.7544 11.9225C11.6865 12.0983 11.6971 12.3434 11.6971 12.5885V17H9.06964C9.06964 17 9.10345 9.5273 9.06964 8.8481H11.6971V10.1276C11.8526 9.5681 12.692 8.7698 14.0316 8.7698C15.6939 8.7698 17 9.9422 17 12.4673V17ZM6.41273 7.8284H6.39555C5.549 7.8284 5 7.2053 5 6.4154C5 5.6102 5.56509 5 6.42882 5C7.29173 5 7.82245 5.6087 7.83908 6.413C7.83908 7.2029 7.29173 7.8284 6.41273 7.8284ZM5.30272 8.8481H7.64163V17H5.30272V8.8481Z" fill="white"/>
</svg>