<svg xmlns="http://www.w3.org/2000/svg" width="22" height="22" viewBox="0 0 22 22" fill="none">
  <rect x="0.636353" y="0.636353" width="20.7273" height="20.7273" rx="5" fill="#1BBFF3"/>
  <path d="M16.7662 7.25382C16.3442 7.45208 15.8978 7.58385 15.4408 7.64507C15.9224 7.33736 16.2824 6.85012 16.4527 6.27565C16.0019 6.56357 15.5087 6.76635 14.9944 6.87522C14.679 6.51233 14.2695 6.26002 13.8191 6.15109C13.3688 6.04217 12.8984 6.08166 12.4692 6.26445C12.04 6.44723 11.6717 6.76485 11.4124 7.17601C11.153 7.58716 11.0145 8.07283 11.0149 8.56987C11.0132 8.75954 11.031 8.94882 11.0682 9.13422C10.1531 9.08591 9.25773 8.83015 8.44067 8.38367C7.62361 7.93719 6.90325 7.31005 6.32669 6.54323C6.03068 7.08815 5.93895 7.73418 6.07022 8.34945C6.20149 8.96473 6.54587 9.50286 7.03306 9.85402C6.66909 9.84342 6.31281 9.73878 5.99424 9.5489V9.57589C5.99484 10.1479 6.17844 10.7023 6.51412 11.1456C6.8498 11.589 7.31708 11.8943 7.8373 12.0101C7.64049 12.0659 7.43767 12.0934 7.23415 12.0917C7.08801 12.0945 6.94202 12.0803 6.79871 12.0493C6.94738 12.541 7.23391 12.9709 7.61886 13.2799C8.00381 13.5889 8.46824 13.7619 8.94823 13.7749C8.13398 14.4606 7.12977 14.8326 6.0961 14.8315C5.91207 14.8328 5.72815 14.8214 5.54547 14.7974C6.59733 15.5273 7.82303 15.9134 9.07435 15.909C13.3073 15.909 15.6217 12.1331 15.6217 8.86014C15.6217 8.75058 15.6182 8.64495 15.6133 8.53993C16.067 8.19027 16.4577 7.75444 16.7662 7.25382Z" fill="white"/>
</svg>