<svg width="15" height="15" viewBox="0 0 15 15" fill="none" xmlns="http://www.w3.org/2000/svg">
<g id="wrong">
<path id="Vector" d="M7.14241 8.64097C7.07043 8.64097 7.00007 8.66232 6.94023 8.7023C6.88038 8.74229 6.83374 8.79913 6.8062 8.86562C6.77865 8.93212 6.77145 9.00529 6.78549 9.07588C6.79953 9.14647 6.83419 9.21132 6.88508 9.26221C6.93598 9.3131 7.00082 9.34776 7.07141 9.3618C7.142 9.37584 7.21517 9.36864 7.28167 9.34109C7.34817 9.31355 7.405 9.26691 7.44499 9.20706C7.48497 9.14722 7.50632 9.07686 7.50632 9.00488C7.50632 8.90837 7.46798 8.81581 7.39973 8.74756C7.33148 8.67931 7.23892 8.64097 7.14241 8.64097ZM11.0253 9.17592L8.09585 4.08117C8.00117 3.91141 7.86287 3.77001 7.69526 3.67157C7.52764 3.57314 7.33679 3.52124 7.14241 3.52124C6.94803 3.52124 6.75717 3.57314 6.58955 3.67157C6.42194 3.77001 6.28365 3.91141 6.18896 4.08117L3.27767 9.17592C3.1797 9.34114 3.12706 9.52929 3.12506 9.72136C3.12306 9.91343 3.17177 10.1026 3.26627 10.2699C3.36078 10.4371 3.49773 10.5764 3.6633 10.6738C3.82887 10.7712 4.0172 10.8231 4.20928 10.8244H10.0755C10.2692 10.8263 10.4598 10.7767 10.6279 10.6807C10.796 10.5846 10.9356 10.4456 11.0322 10.2778C11.1289 10.11 11.1792 9.91954 11.178 9.72592C11.1768 9.53229 11.1241 9.34247 11.0253 9.17592ZM10.3958 9.90375C10.3639 9.9605 10.3173 10.0077 10.261 10.0403C10.2047 10.0729 10.1406 10.0899 10.0755 10.0893H4.20928C4.14418 10.0899 4.08013 10.0729 4.0238 10.0403C3.96747 10.0077 3.92094 9.9605 3.88904 9.90375C3.8571 9.84842 3.84028 9.78567 3.84028 9.72179C3.84028 9.65791 3.8571 9.59516 3.88904 9.53983L6.80033 4.44508C6.83087 4.38547 6.87726 4.33544 6.93441 4.30051C6.99156 4.26558 7.05723 4.24709 7.12421 4.24709C7.19119 4.24709 7.25686 4.26558 7.31401 4.30051C7.37116 4.33544 7.41755 4.38547 7.44809 4.44508L10.3776 9.53983C10.4137 9.59436 10.4344 9.65761 10.4376 9.72293C10.4408 9.78825 10.4264 9.85323 10.3958 9.91102V9.90375ZM7.14241 5.72968C7.04589 5.72968 6.95333 5.76802 6.88508 5.83627C6.81684 5.90452 6.77849 5.99708 6.77849 6.09359V7.54924C6.77849 7.64576 6.81684 7.73832 6.88508 7.80656C6.95333 7.87481 7.04589 7.91315 7.14241 7.91315C7.23892 7.91315 7.33148 7.87481 7.39973 7.80656C7.46798 7.73832 7.50632 7.64576 7.50632 7.54924V6.09359C7.50632 5.99708 7.46798 5.90452 7.39973 5.83627C7.33148 5.76802 7.23892 5.72968 7.14241 5.72968Z" fill="#F65540"/>
</g>
</svg>
